<svg xmlns="http://www.w3.org/2000/svg" viewBox="0 0 64 64" width="64" height="64">
  <defs>
    <linearGradient id="fav-brain" x1="6" y1="58" x2="58" y2="8" gradientUnits="userSpaceOnUse">
      <stop offset="0%" stop-color="#a6d64c"/>
      <stop offset="45%" stop-color="#4bc79b"/>
      <stop offset="100%" stop-color="#2ab7d0"/>
    </linearGradient>
  </defs>
  <rect width="64" height="64" rx="14" fill="#08102a"/>
  <path fill="url(#fav-brain)" d="M23 15.5c2.2-3 6.8-3.4 9.4-1 3-.9 6.4.2 8 2.8 4.6-.3 8.6 3 9 7.4.3 3-.9 5.6-3 7.3.5 3.4-1.7 6.7-5.1 7.6-1.7 2.6-5 3.7-8 2.7-1.6 1.3-3.8 1.7-5.8 1l-1.9 5.2c-.3.8-1.5.6-1.5-.3l.2-6.4c-3-1-5.2-3.6-5.5-6.8-3-1.2-4.9-4.3-4.4-7.6-2.3-2-3-5.4-1.6-8.2 1.4-2.8 4.6-4.2 7.6-3.4.3-1.4 1.2-2.6 2.6-3.1z"/>
  <g fill="none" stroke="#ffffff" stroke-width="1.3" stroke-linecap="round" stroke-linejoin="round">
    <path d="M25 24v-4M25 24c0 3 4 2 4 5M33 18v6c0 2 3 2 3 4M41 22v5c0 2-3 2-3 5M30 33c0 2-3 3-6 3M44 30c-2 0-4 1-4 3"/>
  </g>
  <g fill="#ffffff">
    <circle cx="25" cy="19.5" r="1.7"/>
    <circle cx="33" cy="17.5" r="1.7"/>
    <circle cx="41" cy="21.5" r="1.7"/>
    <circle cx="29" cy="29.5" r="1.6"/>
    <circle cx="36" cy="28.5" r="1.6"/>
    <circle cx="23.5" cy="37" r="1.6"/>
    <circle cx="40" cy="33.5" r="1.6"/>
    <circle cx="44.5" cy="29.5" r="1.5"/>
  </g>
</svg>
